<mxfile host="app.diagrams.net" modified="2023-10-02T18:01:43.199Z" agent="Mozilla/5.0 (Windows NT 10.0; Win64; x64) AppleWebKit/537.36 (KHTML, like Gecko) Chrome/117.0.0.0 Safari/537.36 Edg/117.0.2045.47" etag="xOGVqzcuEcM5ylNgEdYn" version="22.0.1" type="device">
  <diagram name="Page-1" id="ff44883e-f642-bcb2-894b-16b3d25a3f0b">
    <mxGraphModel dx="1469" dy="1035" grid="1" gridSize="10" guides="1" tooltips="1" connect="1" arrows="1" fold="1" page="1" pageScale="1.5" pageWidth="1169" pageHeight="826" background="none" math="0" shadow="0">
      <root>
        <mxCell id="0" style=";html=1;" />
        <mxCell id="1" style=";html=1;" parent="0" />
        <mxCell id="i1qR030Ng2jJwy4FZJ-T-352" value="" style="endArrow=classic;html=1;rounded=0;entryX=0.036;entryY=0.677;entryDx=0;entryDy=0;entryPerimeter=0;" parent="1" edge="1">
          <mxGeometry width="50" height="50" relative="1" as="geometry">
            <mxPoint x="140" y="400" as="sourcePoint" />
            <mxPoint x="374.67999999999984" y="208.01" as="targetPoint" />
          </mxGeometry>
        </mxCell>
        <mxCell id="i1qR030Ng2jJwy4FZJ-T-353" value="" style="endArrow=classic;html=1;rounded=0;exitX=0.483;exitY=1.18;exitDx=0;exitDy=0;exitPerimeter=0;entryX=0.425;entryY=-0.006;entryDx=0;entryDy=0;entryPerimeter=0;" parent="1" edge="1" target="PAvH2s96CFHFJRfZWB-7-39">
          <mxGeometry width="50" height="50" relative="1" as="geometry">
            <mxPoint x="436.4100000000002" y="250.00000000000006" as="sourcePoint" />
            <mxPoint x="445" y="470" as="targetPoint" />
          </mxGeometry>
        </mxCell>
        <mxCell id="i1qR030Ng2jJwy4FZJ-T-354" value="" style="endArrow=classic;html=1;rounded=0;exitX=0.475;exitY=1.205;exitDx=0;exitDy=0;exitPerimeter=0;entryX=0.5;entryY=0;entryDx=0;entryDy=0;entryPerimeter=0;" parent="1" edge="1" target="PAvH2s96CFHFJRfZWB-7-42">
          <mxGeometry width="50" height="50" relative="1" as="geometry">
            <mxPoint x="448" y="599.9999999999998" as="sourcePoint" />
            <mxPoint x="445" y="810" as="targetPoint" />
          </mxGeometry>
        </mxCell>
        <mxCell id="i1qR030Ng2jJwy4FZJ-T-355" value="" style="endArrow=classic;html=1;rounded=0;entryX=0.013;entryY=0.604;entryDx=0;entryDy=0;entryPerimeter=0;exitX=1;exitY=0.5;exitDx=0;exitDy=0;" parent="1" edge="1" source="PAvH2s96CFHFJRfZWB-7-42">
          <mxGeometry width="50" height="50" relative="1" as="geometry">
            <mxPoint x="510" y="874.09" as="sourcePoint" />
            <mxPoint x="761.69" y="878.5199999999998" as="targetPoint" />
          </mxGeometry>
        </mxCell>
        <mxCell id="i1qR030Ng2jJwy4FZJ-T-356" value="" style="endArrow=classic;html=1;rounded=0;entryX=0.45;entryY=1.325;entryDx=0;entryDy=0;entryPerimeter=0;" parent="1" edge="1">
          <mxGeometry width="50" height="50" relative="1" as="geometry">
            <mxPoint x="824.09" y="794" as="sourcePoint" />
            <mxPoint x="824.09" y="619.9999999999998" as="targetPoint" />
          </mxGeometry>
        </mxCell>
        <mxCell id="i1qR030Ng2jJwy4FZJ-T-357" value="" style="endArrow=classic;html=1;rounded=0;entryX=0.5;entryY=1;entryDx=0;entryDy=0;" parent="1" edge="1">
          <mxGeometry width="50" height="50" relative="1" as="geometry">
            <mxPoint x="820" y="490" as="sourcePoint" />
            <mxPoint x="825" y="260" as="targetPoint" />
          </mxGeometry>
        </mxCell>
        <mxCell id="i1qR030Ng2jJwy4FZJ-T-358" value="" style="endArrow=classic;html=1;rounded=0;entryX=0;entryY=0.5;entryDx=0;entryDy=0;" parent="1" edge="1">
          <mxGeometry width="50" height="50" relative="1" as="geometry">
            <mxPoint x="890" y="194.09" as="sourcePoint" />
            <mxPoint x="1110.000000000004" y="195" as="targetPoint" />
          </mxGeometry>
        </mxCell>
        <mxCell id="i1qR030Ng2jJwy4FZJ-T-359" value="" style="endArrow=classic;html=1;rounded=0;exitX=0.525;exitY=1.2;exitDx=0;exitDy=0;exitPerimeter=0;entryX=0.5;entryY=0;entryDx=0;entryDy=0;" parent="1" edge="1">
          <mxGeometry width="50" height="50" relative="1" as="geometry">
            <mxPoint x="1180" y="260" as="sourcePoint" />
            <mxPoint x="1185" y="430" as="targetPoint" />
          </mxGeometry>
        </mxCell>
        <mxCell id="i1qR030Ng2jJwy4FZJ-T-360" value="" style="endArrow=classic;html=1;rounded=0;exitX=0.395;exitY=1.31;exitDx=0;exitDy=0;exitPerimeter=0;entryX=0.5;entryY=0;entryDx=0;entryDy=0;" parent="1" edge="1">
          <mxGeometry width="50" height="50" relative="1" as="geometry">
            <mxPoint x="1182.9" y="560.0000000000001" as="sourcePoint" />
            <mxPoint x="1185" y="800" as="targetPoint" />
          </mxGeometry>
        </mxCell>
        <mxCell id="i1qR030Ng2jJwy4FZJ-T-361" value="" style="endArrow=classic;html=1;rounded=0;exitX=1;exitY=0.308;exitDx=0;exitDy=0;exitPerimeter=0;entryX=0;entryY=1;entryDx=0;entryDy=0;" parent="1" target="PAvH2s96CFHFJRfZWB-7-63" edge="1">
          <mxGeometry width="50" height="50" relative="1" as="geometry">
            <mxPoint x="1250" y="840.0399999999997" as="sourcePoint" />
            <mxPoint x="1400" y="690" as="targetPoint" />
          </mxGeometry>
        </mxCell>
        <mxCell id="PAvH2s96CFHFJRfZWB-7-1" value="&lt;font style=&quot;font-size: 21px;&quot;&gt;&lt;font style=&quot;font-size: 21px;&quot;&gt;1&lt;br&gt;&lt;br&gt;1&amp;nbsp; &amp;nbsp; &amp;nbsp; &amp;nbsp; &amp;nbsp; &amp;nbsp; 1&lt;/font&gt;&lt;br&gt;0&lt;br&gt;&lt;/font&gt;" style="ellipse;whiteSpace=wrap;html=1;aspect=fixed;" vertex="1" parent="1">
          <mxGeometry x="40" y="390" width="140" height="140" as="geometry" />
        </mxCell>
        <mxCell id="PAvH2s96CFHFJRfZWB-7-2" value="" style="endArrow=none;html=1;rounded=0;entryX=0;entryY=0;entryDx=0;entryDy=0;exitX=1;exitY=1;exitDx=0;exitDy=0;" edge="1" parent="1" source="PAvH2s96CFHFJRfZWB-7-1" target="PAvH2s96CFHFJRfZWB-7-1">
          <mxGeometry width="50" height="50" relative="1" as="geometry">
            <mxPoint x="150" y="560" as="sourcePoint" />
            <mxPoint x="200" y="510" as="targetPoint" />
          </mxGeometry>
        </mxCell>
        <mxCell id="PAvH2s96CFHFJRfZWB-7-3" value="" style="endArrow=none;html=1;rounded=0;entryX=1;entryY=0;entryDx=0;entryDy=0;exitX=0;exitY=1;exitDx=0;exitDy=0;elbow=vertical;" edge="1" parent="1" source="PAvH2s96CFHFJRfZWB-7-1" target="PAvH2s96CFHFJRfZWB-7-1">
          <mxGeometry width="50" height="50" relative="1" as="geometry">
            <mxPoint x="70" y="490" as="sourcePoint" />
            <mxPoint x="120" y="440" as="targetPoint" />
          </mxGeometry>
        </mxCell>
        <mxCell id="PAvH2s96CFHFJRfZWB-7-36" value="&lt;font style=&quot;font-size: 21px;&quot;&gt;&lt;font style=&quot;font-size: 21px;&quot;&gt;2&lt;br&gt;&lt;br&gt;14&amp;nbsp; &amp;nbsp; &amp;nbsp; &amp;nbsp; &amp;nbsp; &amp;nbsp; 14&lt;/font&gt;&lt;br&gt;0&lt;br&gt;&lt;/font&gt;" style="ellipse;whiteSpace=wrap;html=1;aspect=fixed;" vertex="1" parent="1">
          <mxGeometry x="370" y="120" width="140" height="140" as="geometry" />
        </mxCell>
        <mxCell id="PAvH2s96CFHFJRfZWB-7-37" value="" style="endArrow=none;html=1;rounded=0;entryX=0;entryY=0;entryDx=0;entryDy=0;exitX=1;exitY=1;exitDx=0;exitDy=0;" edge="1" parent="1" source="PAvH2s96CFHFJRfZWB-7-36" target="PAvH2s96CFHFJRfZWB-7-36">
          <mxGeometry width="50" height="50" relative="1" as="geometry">
            <mxPoint x="540" y="350" as="sourcePoint" />
            <mxPoint x="590" y="300" as="targetPoint" />
          </mxGeometry>
        </mxCell>
        <mxCell id="PAvH2s96CFHFJRfZWB-7-38" value="" style="endArrow=none;html=1;rounded=0;entryX=1;entryY=0;entryDx=0;entryDy=0;exitX=0;exitY=1;exitDx=0;exitDy=0;elbow=vertical;" edge="1" parent="1" source="PAvH2s96CFHFJRfZWB-7-36" target="PAvH2s96CFHFJRfZWB-7-36">
          <mxGeometry width="50" height="50" relative="1" as="geometry">
            <mxPoint x="460" y="280" as="sourcePoint" />
            <mxPoint x="510" y="230" as="targetPoint" />
          </mxGeometry>
        </mxCell>
        <mxCell id="PAvH2s96CFHFJRfZWB-7-39" value="&lt;font style=&quot;font-size: 21px;&quot;&gt;&lt;font style=&quot;font-size: 21px;&quot;&gt;3&lt;br&gt;&lt;br&gt;29&amp;nbsp; &amp;nbsp; &amp;nbsp; &amp;nbsp; &amp;nbsp; &amp;nbsp;29&lt;/font&gt;&lt;br&gt;0&lt;br&gt;&lt;/font&gt;" style="ellipse;whiteSpace=wrap;html=1;aspect=fixed;" vertex="1" parent="1">
          <mxGeometry x="380" y="470" width="140" height="140" as="geometry" />
        </mxCell>
        <mxCell id="PAvH2s96CFHFJRfZWB-7-40" value="" style="endArrow=none;html=1;rounded=0;entryX=0;entryY=0;entryDx=0;entryDy=0;exitX=1;exitY=1;exitDx=0;exitDy=0;" edge="1" parent="1" source="PAvH2s96CFHFJRfZWB-7-39" target="PAvH2s96CFHFJRfZWB-7-39">
          <mxGeometry width="50" height="50" relative="1" as="geometry">
            <mxPoint x="490" y="640" as="sourcePoint" />
            <mxPoint x="540" y="590" as="targetPoint" />
          </mxGeometry>
        </mxCell>
        <mxCell id="PAvH2s96CFHFJRfZWB-7-41" value="" style="endArrow=none;html=1;rounded=0;entryX=1;entryY=0;entryDx=0;entryDy=0;exitX=0;exitY=1;exitDx=0;exitDy=0;elbow=vertical;" edge="1" parent="1" source="PAvH2s96CFHFJRfZWB-7-39" target="PAvH2s96CFHFJRfZWB-7-39">
          <mxGeometry width="50" height="50" relative="1" as="geometry">
            <mxPoint x="410" y="570" as="sourcePoint" />
            <mxPoint x="460" y="520" as="targetPoint" />
          </mxGeometry>
        </mxCell>
        <mxCell id="PAvH2s96CFHFJRfZWB-7-42" value="&lt;font style=&quot;font-size: 21px;&quot;&gt;&lt;font style=&quot;font-size: 21px;&quot;&gt;4&lt;br&gt;&lt;br&gt;50&amp;nbsp; &amp;nbsp; &amp;nbsp; &amp;nbsp; &amp;nbsp; 50&lt;/font&gt;&lt;br&gt;0&lt;br&gt;&lt;/font&gt;" style="ellipse;whiteSpace=wrap;html=1;aspect=fixed;" vertex="1" parent="1">
          <mxGeometry x="380" y="810" width="140" height="140" as="geometry" />
        </mxCell>
        <mxCell id="PAvH2s96CFHFJRfZWB-7-43" value="" style="endArrow=none;html=1;rounded=0;entryX=0;entryY=0;entryDx=0;entryDy=0;exitX=1;exitY=1;exitDx=0;exitDy=0;" edge="1" parent="1" source="PAvH2s96CFHFJRfZWB-7-42" target="PAvH2s96CFHFJRfZWB-7-42">
          <mxGeometry width="50" height="50" relative="1" as="geometry">
            <mxPoint x="480" y="980" as="sourcePoint" />
            <mxPoint x="530" y="930" as="targetPoint" />
          </mxGeometry>
        </mxCell>
        <mxCell id="PAvH2s96CFHFJRfZWB-7-44" value="" style="endArrow=none;html=1;rounded=0;entryX=1;entryY=0;entryDx=0;entryDy=0;exitX=0;exitY=1;exitDx=0;exitDy=0;elbow=vertical;" edge="1" parent="1" source="PAvH2s96CFHFJRfZWB-7-42" target="PAvH2s96CFHFJRfZWB-7-42">
          <mxGeometry width="50" height="50" relative="1" as="geometry">
            <mxPoint x="410" y="910" as="sourcePoint" />
            <mxPoint x="460" y="860" as="targetPoint" />
          </mxGeometry>
        </mxCell>
        <mxCell id="PAvH2s96CFHFJRfZWB-7-45" value="&lt;font style=&quot;font-size: 21px;&quot;&gt;&lt;font style=&quot;font-size: 21px;&quot;&gt;5&lt;br&gt;&lt;br&gt;64&amp;nbsp; &amp;nbsp; &amp;nbsp; &amp;nbsp; &amp;nbsp; 64&lt;/font&gt;&lt;br&gt;0&lt;br&gt;&lt;/font&gt;" style="ellipse;whiteSpace=wrap;html=1;aspect=fixed;" vertex="1" parent="1">
          <mxGeometry x="760" y="795" width="140" height="140" as="geometry" />
        </mxCell>
        <mxCell id="PAvH2s96CFHFJRfZWB-7-46" value="" style="endArrow=none;html=1;rounded=0;entryX=0;entryY=0;entryDx=0;entryDy=0;exitX=1;exitY=1;exitDx=0;exitDy=0;" edge="1" parent="1" source="PAvH2s96CFHFJRfZWB-7-45" target="PAvH2s96CFHFJRfZWB-7-45">
          <mxGeometry width="50" height="50" relative="1" as="geometry">
            <mxPoint x="870" y="965" as="sourcePoint" />
            <mxPoint x="920" y="915" as="targetPoint" />
          </mxGeometry>
        </mxCell>
        <mxCell id="PAvH2s96CFHFJRfZWB-7-47" value="" style="endArrow=none;html=1;rounded=0;entryX=1;entryY=0;entryDx=0;entryDy=0;exitX=0;exitY=1;exitDx=0;exitDy=0;elbow=vertical;" edge="1" parent="1" source="PAvH2s96CFHFJRfZWB-7-45" target="PAvH2s96CFHFJRfZWB-7-45">
          <mxGeometry width="50" height="50" relative="1" as="geometry">
            <mxPoint x="790" y="895" as="sourcePoint" />
            <mxPoint x="840" y="845" as="targetPoint" />
          </mxGeometry>
        </mxCell>
        <mxCell id="PAvH2s96CFHFJRfZWB-7-48" value="&lt;font style=&quot;font-size: 21px;&quot;&gt;&lt;font style=&quot;font-size: 21px;&quot;&gt;7&lt;br&gt;&lt;br&gt;85&amp;nbsp; &amp;nbsp; &amp;nbsp; &amp;nbsp; &amp;nbsp; &amp;nbsp;85&lt;/font&gt;&lt;br&gt;0&lt;br&gt;&lt;/font&gt;" style="ellipse;whiteSpace=wrap;html=1;aspect=fixed;" vertex="1" parent="1">
          <mxGeometry x="755" y="120" width="140" height="140" as="geometry" />
        </mxCell>
        <mxCell id="PAvH2s96CFHFJRfZWB-7-49" value="" style="endArrow=none;html=1;rounded=0;entryX=0;entryY=0;entryDx=0;entryDy=0;exitX=1;exitY=1;exitDx=0;exitDy=0;" edge="1" parent="1" source="PAvH2s96CFHFJRfZWB-7-48" target="PAvH2s96CFHFJRfZWB-7-48">
          <mxGeometry width="50" height="50" relative="1" as="geometry">
            <mxPoint x="820" y="230" as="sourcePoint" />
            <mxPoint x="870" y="180" as="targetPoint" />
          </mxGeometry>
        </mxCell>
        <mxCell id="PAvH2s96CFHFJRfZWB-7-50" value="" style="endArrow=none;html=1;rounded=0;entryX=1;entryY=0;entryDx=0;entryDy=0;exitX=0;exitY=1;exitDx=0;exitDy=0;elbow=vertical;" edge="1" parent="1" source="PAvH2s96CFHFJRfZWB-7-48" target="PAvH2s96CFHFJRfZWB-7-48">
          <mxGeometry width="50" height="50" relative="1" as="geometry">
            <mxPoint x="740" y="160" as="sourcePoint" />
            <mxPoint x="790" y="110" as="targetPoint" />
          </mxGeometry>
        </mxCell>
        <mxCell id="PAvH2s96CFHFJRfZWB-7-51" value="&lt;font style=&quot;font-size: 21px;&quot;&gt;&lt;font style=&quot;font-size: 21px;&quot;&gt;6&lt;br&gt;&lt;br&gt;71&amp;nbsp; &amp;nbsp; &amp;nbsp; &amp;nbsp; &amp;nbsp; 71&lt;/font&gt;&lt;br&gt;0&lt;br&gt;&lt;/font&gt;" style="ellipse;whiteSpace=wrap;html=1;aspect=fixed;" vertex="1" parent="1">
          <mxGeometry x="750" y="480" width="140" height="140" as="geometry" />
        </mxCell>
        <mxCell id="PAvH2s96CFHFJRfZWB-7-52" value="" style="endArrow=none;html=1;rounded=0;entryX=0;entryY=0;entryDx=0;entryDy=0;exitX=1;exitY=1;exitDx=0;exitDy=0;" edge="1" parent="1" source="PAvH2s96CFHFJRfZWB-7-51" target="PAvH2s96CFHFJRfZWB-7-51">
          <mxGeometry width="50" height="50" relative="1" as="geometry">
            <mxPoint x="1020" y="810" as="sourcePoint" />
            <mxPoint x="1070" y="760" as="targetPoint" />
          </mxGeometry>
        </mxCell>
        <mxCell id="PAvH2s96CFHFJRfZWB-7-53" value="" style="endArrow=none;html=1;rounded=0;entryX=1;entryY=0;entryDx=0;entryDy=0;exitX=0;exitY=1;exitDx=0;exitDy=0;elbow=horizontal;" edge="1" parent="1" source="PAvH2s96CFHFJRfZWB-7-51" target="PAvH2s96CFHFJRfZWB-7-51">
          <mxGeometry width="50" height="50" relative="1" as="geometry">
            <mxPoint x="940" y="740" as="sourcePoint" />
            <mxPoint x="990" y="690" as="targetPoint" />
          </mxGeometry>
        </mxCell>
        <mxCell id="PAvH2s96CFHFJRfZWB-7-54" value="&lt;font style=&quot;font-size: 21px;&quot;&gt;&lt;font style=&quot;font-size: 21px;&quot;&gt;8&lt;br&gt;&lt;br&gt;93&amp;nbsp; &amp;nbsp; &amp;nbsp; &amp;nbsp; &amp;nbsp; &amp;nbsp;93&lt;/font&gt;&lt;br&gt;0&lt;br&gt;&lt;/font&gt;" style="ellipse;whiteSpace=wrap;html=1;aspect=fixed;" vertex="1" parent="1">
          <mxGeometry x="1110" y="120" width="140" height="140" as="geometry" />
        </mxCell>
        <mxCell id="PAvH2s96CFHFJRfZWB-7-55" value="" style="endArrow=none;html=1;rounded=0;entryX=0;entryY=0;entryDx=0;entryDy=0;exitX=1;exitY=1;exitDx=0;exitDy=0;" edge="1" parent="1" source="PAvH2s96CFHFJRfZWB-7-54" target="PAvH2s96CFHFJRfZWB-7-54">
          <mxGeometry width="50" height="50" relative="1" as="geometry">
            <mxPoint x="1220" y="290" as="sourcePoint" />
            <mxPoint x="1270" y="240" as="targetPoint" />
          </mxGeometry>
        </mxCell>
        <mxCell id="PAvH2s96CFHFJRfZWB-7-56" value="" style="endArrow=none;html=1;rounded=0;entryX=1;entryY=0;entryDx=0;entryDy=0;exitX=0;exitY=1;exitDx=0;exitDy=0;elbow=vertical;" edge="1" parent="1" source="PAvH2s96CFHFJRfZWB-7-54" target="PAvH2s96CFHFJRfZWB-7-54">
          <mxGeometry width="50" height="50" relative="1" as="geometry">
            <mxPoint x="1140" y="220" as="sourcePoint" />
            <mxPoint x="1190" y="170" as="targetPoint" />
          </mxGeometry>
        </mxCell>
        <mxCell id="PAvH2s96CFHFJRfZWB-7-57" value="&lt;font style=&quot;font-size: 21px;&quot;&gt;&lt;font style=&quot;font-size: 21px;&quot;&gt;9&lt;br&gt;&lt;br&gt;100&amp;nbsp; &amp;nbsp; &amp;nbsp; &amp;nbsp; 100&lt;/font&gt;&lt;br&gt;0&lt;br&gt;&lt;/font&gt;" style="ellipse;whiteSpace=wrap;html=1;aspect=fixed;" vertex="1" parent="1">
          <mxGeometry x="1115" y="430" width="140" height="140" as="geometry" />
        </mxCell>
        <mxCell id="PAvH2s96CFHFJRfZWB-7-58" value="" style="endArrow=none;html=1;rounded=0;entryX=0;entryY=0;entryDx=0;entryDy=0;exitX=1;exitY=1;exitDx=0;exitDy=0;" edge="1" parent="1" source="PAvH2s96CFHFJRfZWB-7-57" target="PAvH2s96CFHFJRfZWB-7-57">
          <mxGeometry width="50" height="50" relative="1" as="geometry">
            <mxPoint x="1225" y="600" as="sourcePoint" />
            <mxPoint x="1275" y="550" as="targetPoint" />
          </mxGeometry>
        </mxCell>
        <mxCell id="PAvH2s96CFHFJRfZWB-7-59" value="" style="endArrow=none;html=1;rounded=0;entryX=1;entryY=0;entryDx=0;entryDy=0;exitX=0;exitY=1;exitDx=0;exitDy=0;elbow=horizontal;" edge="1" parent="1" source="PAvH2s96CFHFJRfZWB-7-57" target="PAvH2s96CFHFJRfZWB-7-57">
          <mxGeometry width="50" height="50" relative="1" as="geometry">
            <mxPoint x="1145" y="530" as="sourcePoint" />
            <mxPoint x="1195" y="480" as="targetPoint" />
          </mxGeometry>
        </mxCell>
        <mxCell id="PAvH2s96CFHFJRfZWB-7-60" value="&lt;font style=&quot;font-size: 21px;&quot;&gt;&lt;font style=&quot;font-size: 21px;&quot;&gt;10&lt;br&gt;&lt;br&gt;116&amp;nbsp; &amp;nbsp; &amp;nbsp; &amp;nbsp; &amp;nbsp;116&lt;/font&gt;&lt;br&gt;0&lt;br&gt;&lt;/font&gt;" style="ellipse;whiteSpace=wrap;html=1;aspect=fixed;" vertex="1" parent="1">
          <mxGeometry x="1110" y="795" width="140" height="140" as="geometry" />
        </mxCell>
        <mxCell id="PAvH2s96CFHFJRfZWB-7-61" value="" style="endArrow=none;html=1;rounded=0;entryX=0;entryY=0;entryDx=0;entryDy=0;exitX=1;exitY=1;exitDx=0;exitDy=0;" edge="1" parent="1" source="PAvH2s96CFHFJRfZWB-7-60" target="PAvH2s96CFHFJRfZWB-7-60">
          <mxGeometry width="50" height="50" relative="1" as="geometry">
            <mxPoint x="1220" y="965" as="sourcePoint" />
            <mxPoint x="1270" y="915" as="targetPoint" />
          </mxGeometry>
        </mxCell>
        <mxCell id="PAvH2s96CFHFJRfZWB-7-62" value="" style="endArrow=none;html=1;rounded=0;entryX=1;entryY=0;entryDx=0;entryDy=0;exitX=0;exitY=1;exitDx=0;exitDy=0;elbow=vertical;" edge="1" parent="1" source="PAvH2s96CFHFJRfZWB-7-60" target="PAvH2s96CFHFJRfZWB-7-60">
          <mxGeometry width="50" height="50" relative="1" as="geometry">
            <mxPoint x="1140" y="895" as="sourcePoint" />
            <mxPoint x="1190" y="845" as="targetPoint" />
          </mxGeometry>
        </mxCell>
        <mxCell id="PAvH2s96CFHFJRfZWB-7-63" value="&lt;font style=&quot;font-size: 21px;&quot;&gt;&lt;font style=&quot;font-size: 21px;&quot;&gt;11&lt;br&gt;&lt;br&gt;117&amp;nbsp; &amp;nbsp; &amp;nbsp; &amp;nbsp; &amp;nbsp;117&lt;/font&gt;&lt;br&gt;0&lt;br&gt;&lt;/font&gt;" style="ellipse;whiteSpace=wrap;html=1;aspect=fixed;" vertex="1" parent="1">
          <mxGeometry x="1460" y="460" width="140" height="140" as="geometry" />
        </mxCell>
        <mxCell id="PAvH2s96CFHFJRfZWB-7-64" value="" style="endArrow=none;html=1;rounded=0;entryX=0;entryY=0;entryDx=0;entryDy=0;exitX=1;exitY=1;exitDx=0;exitDy=0;" edge="1" parent="1" source="PAvH2s96CFHFJRfZWB-7-63" target="PAvH2s96CFHFJRfZWB-7-63">
          <mxGeometry width="50" height="50" relative="1" as="geometry">
            <mxPoint x="1640" y="620" as="sourcePoint" />
            <mxPoint x="1690" y="570" as="targetPoint" />
          </mxGeometry>
        </mxCell>
        <mxCell id="PAvH2s96CFHFJRfZWB-7-65" value="" style="endArrow=none;html=1;rounded=0;entryX=1;entryY=0;entryDx=0;entryDy=0;exitX=0;exitY=1;exitDx=0;exitDy=0;elbow=vertical;" edge="1" parent="1" source="PAvH2s96CFHFJRfZWB-7-63" target="PAvH2s96CFHFJRfZWB-7-63">
          <mxGeometry width="50" height="50" relative="1" as="geometry">
            <mxPoint x="1560" y="550" as="sourcePoint" />
            <mxPoint x="1610" y="500" as="targetPoint" />
          </mxGeometry>
        </mxCell>
        <mxCell id="PAvH2s96CFHFJRfZWB-7-70" value="&lt;font style=&quot;font-size: 21px;&quot;&gt;&lt;font style=&quot;font-size: 21px;&quot;&gt;0&lt;br&gt;&lt;br&gt;0&amp;nbsp; &amp;nbsp; &amp;nbsp; &amp;nbsp; &amp;nbsp; &amp;nbsp; 0&lt;/font&gt;&lt;br&gt;0&lt;br&gt;&lt;/font&gt;" style="ellipse;whiteSpace=wrap;html=1;aspect=fixed;" vertex="1" parent="1">
          <mxGeometry x="40" y="640" width="140" height="140" as="geometry" />
        </mxCell>
        <mxCell id="PAvH2s96CFHFJRfZWB-7-71" value="" style="endArrow=none;html=1;rounded=0;entryX=0;entryY=0;entryDx=0;entryDy=0;exitX=1;exitY=1;exitDx=0;exitDy=0;" edge="1" parent="1" source="PAvH2s96CFHFJRfZWB-7-70" target="PAvH2s96CFHFJRfZWB-7-70">
          <mxGeometry width="50" height="50" relative="1" as="geometry">
            <mxPoint x="240" y="830" as="sourcePoint" />
            <mxPoint x="290" y="780" as="targetPoint" />
          </mxGeometry>
        </mxCell>
        <mxCell id="PAvH2s96CFHFJRfZWB-7-72" value="" style="endArrow=none;html=1;rounded=0;entryX=1;entryY=0;entryDx=0;entryDy=0;exitX=0;exitY=1;exitDx=0;exitDy=0;elbow=vertical;" edge="1" parent="1" source="PAvH2s96CFHFJRfZWB-7-70" target="PAvH2s96CFHFJRfZWB-7-70">
          <mxGeometry width="50" height="50" relative="1" as="geometry">
            <mxPoint x="160" y="760" as="sourcePoint" />
            <mxPoint x="210" y="710" as="targetPoint" />
          </mxGeometry>
        </mxCell>
        <mxCell id="PAvH2s96CFHFJRfZWB-7-73" value="" style="endArrow=classic;html=1;rounded=0;entryX=0.5;entryY=1;entryDx=0;entryDy=0;exitX=0.5;exitY=0;exitDx=0;exitDy=0;" edge="1" parent="1" source="PAvH2s96CFHFJRfZWB-7-70" target="PAvH2s96CFHFJRfZWB-7-1">
          <mxGeometry width="50" height="50" relative="1" as="geometry">
            <mxPoint x="230" y="520" as="sourcePoint" />
            <mxPoint x="464.67999999999984" y="328.01" as="targetPoint" />
          </mxGeometry>
        </mxCell>
        <mxCell id="PAvH2s96CFHFJRfZWB-7-74" value="&lt;font style=&quot;font-size: 23px;&quot;&gt;Start&lt;/font&gt;" style="text;html=1;align=center;verticalAlign=middle;resizable=0;points=[];autosize=1;strokeColor=none;fillColor=none;" vertex="1" parent="1">
          <mxGeometry x="75" y="803" width="70" height="40" as="geometry" />
        </mxCell>
        <mxCell id="PAvH2s96CFHFJRfZWB-7-75" value="&lt;font style=&quot;font-size: 22px;&quot;&gt;A=1&lt;/font&gt;" style="text;html=1;align=center;verticalAlign=middle;resizable=0;points=[];autosize=1;strokeColor=none;fillColor=none;" vertex="1" parent="1">
          <mxGeometry x="50" y="570" width="60" height="40" as="geometry" />
        </mxCell>
        <mxCell id="PAvH2s96CFHFJRfZWB-7-76" value="&lt;font style=&quot;font-size: 22px;&quot;&gt;B=13&lt;/font&gt;" style="text;html=1;align=center;verticalAlign=middle;resizable=0;points=[];autosize=1;strokeColor=none;fillColor=none;" vertex="1" parent="1">
          <mxGeometry x="180" y="270" width="80" height="40" as="geometry" />
        </mxCell>
        <mxCell id="PAvH2s96CFHFJRfZWB-7-82" value="&lt;font style=&quot;font-size: 22px;&quot;&gt;Finish&lt;/font&gt;" style="text;html=1;align=center;verticalAlign=middle;resizable=0;points=[];autosize=1;strokeColor=none;fillColor=none;" vertex="1" parent="1">
          <mxGeometry x="1490" y="630" width="80" height="40" as="geometry" />
        </mxCell>
        <mxCell id="PAvH2s96CFHFJRfZWB-7-83" value="&lt;font style=&quot;font-size: 22px;&quot;&gt;C=15&lt;/font&gt;" style="text;html=1;align=center;verticalAlign=middle;resizable=0;points=[];autosize=1;strokeColor=none;fillColor=none;" vertex="1" parent="1">
          <mxGeometry x="440" y="360" width="80" height="40" as="geometry" />
        </mxCell>
        <mxCell id="PAvH2s96CFHFJRfZWB-7-84" value="&lt;font style=&quot;font-size: 22px;&quot;&gt;D=21&lt;/font&gt;" style="text;html=1;align=center;verticalAlign=middle;resizable=0;points=[];autosize=1;strokeColor=none;fillColor=none;" vertex="1" parent="1">
          <mxGeometry x="450" y="720" width="80" height="40" as="geometry" />
        </mxCell>
        <mxCell id="PAvH2s96CFHFJRfZWB-7-85" value="&lt;font style=&quot;font-size: 22px;&quot;&gt;E=14&lt;/font&gt;" style="text;html=1;align=center;verticalAlign=middle;resizable=0;points=[];autosize=1;strokeColor=none;fillColor=none;" vertex="1" parent="1">
          <mxGeometry x="580" y="843" width="80" height="40" as="geometry" />
        </mxCell>
        <mxCell id="PAvH2s96CFHFJRfZWB-7-86" value="&lt;font style=&quot;font-size: 22px;&quot;&gt;F=7&lt;/font&gt;" style="text;html=1;align=center;verticalAlign=middle;resizable=0;points=[];autosize=1;strokeColor=none;fillColor=none;" vertex="1" parent="1">
          <mxGeometry x="830" y="720" width="60" height="40" as="geometry" />
        </mxCell>
        <mxCell id="PAvH2s96CFHFJRfZWB-7-87" value="&lt;font style=&quot;font-size: 22px;&quot;&gt;G=14&lt;/font&gt;" style="text;html=1;align=center;verticalAlign=middle;resizable=0;points=[];autosize=1;strokeColor=none;fillColor=none;" vertex="1" parent="1">
          <mxGeometry x="820" y="360" width="80" height="40" as="geometry" />
        </mxCell>
        <mxCell id="PAvH2s96CFHFJRfZWB-7-88" value="&lt;font style=&quot;font-size: 22px;&quot;&gt;H=8&lt;/font&gt;" style="text;html=1;align=center;verticalAlign=middle;resizable=0;points=[];autosize=1;strokeColor=none;fillColor=none;" vertex="1" parent="1">
          <mxGeometry x="970" y="150" width="60" height="40" as="geometry" />
        </mxCell>
        <mxCell id="PAvH2s96CFHFJRfZWB-7-89" value="&lt;font style=&quot;font-size: 22px;&quot;&gt;I=7&lt;/font&gt;" style="text;html=1;align=center;verticalAlign=middle;resizable=0;points=[];autosize=1;strokeColor=none;fillColor=none;" vertex="1" parent="1">
          <mxGeometry x="1200" y="320" width="50" height="40" as="geometry" />
        </mxCell>
        <mxCell id="PAvH2s96CFHFJRfZWB-7-90" value="&lt;font style=&quot;font-size: 22px;&quot;&gt;J=16&lt;/font&gt;" style="text;html=1;align=center;verticalAlign=middle;resizable=0;points=[];autosize=1;strokeColor=none;fillColor=none;" vertex="1" parent="1">
          <mxGeometry x="1190" y="660" width="70" height="40" as="geometry" />
        </mxCell>
        <mxCell id="PAvH2s96CFHFJRfZWB-7-91" value="&lt;font style=&quot;font-size: 22px;&quot;&gt;K=1&lt;/font&gt;" style="text;html=1;align=center;verticalAlign=middle;resizable=0;points=[];autosize=1;strokeColor=none;fillColor=none;" vertex="1" parent="1">
          <mxGeometry x="1360" y="720" width="60" height="40" as="geometry" />
        </mxCell>
      </root>
    </mxGraphModel>
  </diagram>
</mxfile>
